name C:\Users\u0101727\Documents\MyRepositories\upper-imu-dc\Results\main_mocap_tracking\Case_11\kinematics.mot
datacolumns 10
datarows 28
range 1.50000000 1.77000000
endheader 
time	clav_prot	clav_elev	scapula_abduction	scapula_elevation	scapula_upward_rot	scapula_winging	plane_elv	shoulder_elv	axial_rot	
          1.50000000	        -28.96755967	        -29.99119472	        -12.08819199	        -27.26060224	         23.99149958	         23.59646775	         89.99985897	         50.88511584	        -26.58051414	
          1.51000000	        -28.16131832	        -29.99932795	        -10.50528370	        -27.25119651	         24.28020766	         23.60412841	         89.72832787	         51.38295631	        -25.81433542	
          1.52000000	        -27.33836571	        -29.98422108	         -8.87360905	        -27.22698016	         24.55630759	         23.57072755	         89.47160573	         51.88602799	        -25.08466846	
          1.53000000	        -26.62877288	        -29.96488985	         -7.47818168	        -27.19880736	         24.78193783	         23.52025068	         89.23650488	         52.40096883	        -24.41606293	
          1.54000000	        -26.03046282	        -29.94440709	         -6.31280476	        -27.16959456	         24.95955811	         23.46287085	         89.01979311	         52.92977045	        -23.81216743	
          1.55000000	        -25.53371496	        -29.91807095	         -5.35826424	        -27.13552953	         25.09347121	         23.39752249	         88.81716939	         53.47367861	        -23.27872402	
          1.56000000	        -25.12778020	        -29.88497037	         -4.59157401	        -27.09606512	         25.18942898	         23.32615242	         88.62468279	         54.03229649	        -22.81697459	
          1.57000000	        -24.80332974	        -29.84452355	         -3.99226361	        -27.05097234	         25.25302958	         23.24999987	         88.43900439	         54.60456273	        -22.42546421	
          1.58000000	        -24.54850288	        -29.79791947	         -3.53361464	        -27.00162061	         25.29191522	         23.17115376	         88.25814186	         55.18811651	        -22.09660170	
          1.59000000	        -24.34986670	        -29.74632521	         -3.18564080	        -26.94938792	         25.31460725	         23.09067086	         88.08166058	         55.78003102	        -21.82013070	
          1.60000000	        -24.18823359	        -29.69214537	         -2.90726314	        -26.89649586	         25.33089703	         23.00988237	         87.91042727	         56.37667581	        -21.58236092	
          1.61000000	        -24.04016371	        -29.63728219	         -2.65103871	        -26.84431568	         25.34951171	         22.92869805	         87.74608460	         56.97472468	        -21.37017456	
          1.62000000	        -23.85161706	        -29.58610492	         -2.31624641	        -26.79422216	         25.37894105	         22.84668534	         87.59020906	         57.57089754	        -21.17524736	
          1.63000000	        -23.72835526	        -29.52946342	         -2.08593130	        -26.74608006	         25.42232253	         22.76244991	         87.44408814	         58.16361681	        -20.98677719	
          1.64000000	        -23.70067215	        -29.46430619	         -2.00819643	        -26.70038789	         25.48639557	         22.67538286	         87.30817851	         58.75096240	        -20.80901380	
          1.65000000	        -23.69805981	        -29.39390524	         -1.96469701	        -26.65425719	         25.56487463	         22.58329417	         87.18372227	         59.33564025	        -20.64938620	
          1.66000000	        -23.71005964	        -29.31730689	         -1.94231112	        -26.60519344	         25.65110877	         22.48463702	         87.07278849	         59.92074388	        -20.51494288	
          1.67000000	        -23.73102376	        -29.23318354	         -1.93606144	        -26.55077387	         25.73882659	         22.37785876	         86.97917017	         60.50955167	        -20.41044569	
          1.68000000	        -23.74186868	        -29.14241497	         -1.91604094	        -26.48977650	         25.82340878	         22.26261594	         86.90828778	         61.10480993	        -20.33690537	
          1.69000000	        -23.73276678	        -29.04648058	         -1.86033305	        -26.42376870	         25.91122415	         22.13920126	         86.86569805	         61.70530187	        -20.29122580	
          1.70000000	        -23.74736988	        -28.94357361	         -1.83919182	        -26.35531136	         26.01001616	         22.00903783	         86.85612119	         62.30889140	        -20.25960447	
          1.71000000	        -23.76413543	        -28.83375376	         -1.82436318	        -26.28112815	         26.10722572	         21.87130633	         86.88494392	         62.92040623	        -20.21325510	
          1.72000000	        -23.77490619	        -28.72091489	         -1.80144772	        -26.20376137	         26.20197806	         21.72997648	         86.95370667	         63.54029874	        -20.14146617	
          1.73000000	        -23.78699856	        -28.60692825	         -1.78199214	        -26.12536416	         26.29516353	         21.58790702	         87.06191754	         64.16848957	        -20.04063436	
          1.74000000	        -23.79478607	        -28.49353325	         -1.75765840	        -26.04661876	         26.38431158	         21.44685287	         87.20778040	         64.80590106	        -19.90581386	
          1.75000000	        -23.77053425	        -28.38272212	         -1.68267773	        -25.96681848	         26.46592627	         21.30686307	         87.38852128	         65.45346422	        -19.72535128	
          1.76000000	        -23.72243702	        -28.27763982	         -1.55956249	        -25.89140735	         26.55527131	         21.17090450	         87.59772995	         66.10493967	        -19.50048267	
          1.77000000	        -23.71310926	        -28.17443016	         -1.48861051	        -25.82310657	         26.66425644	         21.03927343	         87.82855194	         66.75520971	        -19.22340554	
